<svg xmlns="http://www.w3.org/2000/svg" width="210.146" height="167.2314" viewBox="0 0 55.6011 44.2467"><g style="stroke-width:.412029"><path d="m42.4472 102.5168 1.8916.0315q1.3241 0 1.8285-.0788.0946.1734.0946.268l-.0315.1261q-.9774.0946-1.6237 1.0404-.5201.7724-.8985 1.6394-.394.9615-1.1665 2.4748 1.9232 1.8286 3.5468 2.0966.3626.063 1.1192.063.0315.2208.0315.3311 0 .0946-.0157.1576-1.0246.0473-1.7025.1734-.662.1419-.7881.1419t-.473-.1419q-.3467-.126-1.0403-.5517-.6778-.4256-1.4345-1.0561-.599.7881-1.3399 1.198-.7409.4098-1.8758.5517-1.6552 0-2.7901-.8828-1.1192-.8985-1.1192-2.3487 0-1.1823.5674-2.0177.5833-.8512 1.6552-1.734-.8985-1.466-.8985-2.5379t.7724-1.6551q.7882-.599 2.0177-.741.8827 0 1.5763.5518.6936.536.6936 1.3241 0 .5517-.4256.9773-.331.331-.5832.5045-.2522.1734-.268.1891l-.2995-.268q.5517-.5674.5517-1.2453 0-.6778-.4414-1.135-.4413-.4728-1.0404-.4728-.5832 0-.93.394-.331.3942-.331 1.0877 0 .6936.4098 1.5449.4256.8354 1.2138 1.7497 1.2295 1.4187 2.7586 2.869l.4414.4255q1.1192-2.2068 1.4817-4.4768-.4729-.0946-1.135-.0946-.063-.126-.063-.2364t.063-.2365zm-3.531 7.724q1.3083 0 2.3802-1.4186-2.7743-2.5537-4.0512-4.2877-.5674.6463-.7881 1.1508-.205.5044-.205 1.2137 0 .7094.142 1.2453.1418.5202.4255 1.009.2995.4886.8355.788.536.2996 1.261.2996z" aria-label="&amp;" style="font-size:15.7634px;line-height:1.25;font-family:Rosarivo;-inkscape-font-specification:Rosarivo;text-align:center;text-anchor:middle;fill:#be9f9c;stroke-width:.394083" transform="translate(-69.804 -234.8359) scale(2.427)"/><g aria-label="Mhairi Jason" style="font-size:6.80987px;line-height:1.25;font-family:Rosarivo;-inkscape-font-specification:Rosarivo;text-align:center;text-anchor:middle;fill:#2c2132;stroke-width:.170247"><path d="m17.6361 16.9584-1.7189-.0495q-1.785 0-2.8923.1323-.0826-.0993-.0826-.281l.0165-.1323q.9916-.2312 1.256-.4958.2645-.2644.314-1.1239.0497-.8594.0497-1.785 0-.942-.0992-2.8592l-.1322-2.7106q-.7603 1.4049-2.38 4.7765-1.6032 3.3717-2.0825 4.8096h-.4628Q6.199 9.9508 5.29 8.364l-.6941-1.19q-.0661 2.0495-.0661 5.008 0 2.9418.1983 4.2145.3636.0495 1.2892.0495.0495.1322.0495.2975 0 .1487-.0495.2148l-1.8677-.0496q-1.1404 0-1.9172.1323-.0826-.0992-.0826-.281l.0165-.1322q.8098-.1818 1.0743-.5289.281-.347.3636-.909.3967-2.8262.4628-8.9084-.4463-.562-.9752-.7934-.066-.0165-.9255-.1322l-.0496-.2314q0-.1653.0496-.2644l2.6444-.0661q.248 0 .843.876.6114.8759 1.2064 1.9502.595 1.0578 1.3718 2.7601.7934 1.7024 1.3222 2.942.529 1.2395.595 1.3552.2149-.4793 2.033-4.3137 1.818-3.851 2.3965-5.355 1.6692 0 2.6609-.1487.0826.1487.0826.4132-.8263.1818-1.1073.5454-.281.3636-.314.7768-.033.4132-.033 1.5536t.099 3.8675q.1158 2.727.3472 4.3798.314.0495 1.3222.0495.0496.1158.0496.2644 0 .1488-.0496.248zm4.76 0-1.3884-.0495q-1.2891 0-2.3304.1323-.0826-.0993-.0826-.281l.0165-.1323q.6776-.1487.909-.4462.248-.314.3636-1.0082.1323-.7107.1323-5.1897v-4.231q0-1.504-.3471-1.8346-.1818-.1818-.4628-.2149l-.595-.066q-.0496-.0827-.0496-.1984 0-.1322.0496-.2149 1.1735-.2149 1.818-.5289.4298-.2148.9752-.5784.1653 0 .2644.1652-.3305 2.066-.3305 7.7515 2.099-1.157 3.355-1.537 1.0744 0 1.6198.7933.5454.7933.5454 2.132l-.033 2.1156q0 2.8262.2479 2.8758.2479.033.9751.033.0661.1158.0661.2148 0 .0992-.0661.2975l-1.5205-.0495q-1.3718 0-2.1817.1322-.0992-.1322-.0992-.281l.0331-.1322q.6776-.1488.909-.4462.2314-.2975.2645-.7107.0495-.4132.0495-1.6693t-.0165-1.5536q0-.314-.0495-.7934-.0331-.4958-.1488-.7437-.0992-.2644-.2644-.5454-.3306-.5124-1.1735-.5124-.843 0-1.8676.6777-.1488.0827-.3802.2479-.2314.1488-.2644.1653-.0165.8263-.0165 1.7519 0 3.8179.1983 3.884.2149.066.876.066.0496.1158.0496.2644 0 .1488-.0496.248zm12.7428-6.0656-.0496 4.0327q0 1.2066.7768 1.2066l.595-.017q.066.0827.066.2644l-.033.1818q-1.2726.2313-1.818.6776-.3636-.0992-.628-.4462-.248-.3636-.281-.7603-1.3223.8099-2.628 1.2065-.5619 0-1.1569-.628-.595-.6446-.595-1.6032 0-.4793.2149-.8595.2149-.3966.5124-.5454 1.223-.6115 3.636-1.0743v-1.57q0-.9091-.2975-1.3554-.281-.4462-.6941-.4462-.3967 0-.8595.1488-.4627.1322-.661.5289-.1819.3966-.1819 1.1238 0 .066-.2314.1488-.2148.066-.562.066-.3305 0-.4627-.1487-.1157-.1653-.1157-.4794 0-.595.8595-1.2891.1983-.1323 1.1569-.4463.9751-.314 1.1239-.314 1.19 0 1.752.6942.5618.6941.5618 1.7023zm-4.2807 4.0327q0 .3967.314.8595.314.4628.7107.4628.4132 0 .942-.281.529-.281.876-.595.0496-.9752.0496-2.2478-1.3883.1818-2.446.7933-.4463.2148-.4463 1.0082zm10.3463 2.033-1.4875-.0496q-1.157 0-2.1817.1323-.0991-.1323-.0991-.281l.033-.1323q.7107-.1652.9586-.5123.1818-.2644.281-.628.0992-.3802.0992-2.1486v-1.5867q0-1.0247-.0992-1.4214-.0826-.3967-.2644-.5289-.1819-.1322-.4794-.1652l-.6115-.0495q-.0496-.066-.0496-.2148l.0496-.2148q.8595-.1818 1.3883-.3636.5455-.1983 1.2727-.562.1818 0 .2479.1983-.1983 1.1239-.1983 5.355 0 .7602.0495 1.6858.0662.909.1653.9255.248.0495.9256.0495.0496.1158.0496.2645 0 .1488-.0496.2479zM39.6509 6.3476q-.595-.4132-.843-1.0908.1984-.2314.529-.4793.347-.2645.595-.3637.628.4628.8098 1.1074-.4628.595-1.0908.8264zm3.4542 3.1402-.6445.017q-.0827-.0825-.0827-.2479l.033-.1983q1.124-.1488 1.8346-.4627.2314-.0993.281-.0993.1818 0 .4132.661.2314.6447.281 1.2892 1.2396-1.2891 2.2477-1.9502.6611 0 1.0909.3966.4297.3802.4297.9587 0 .661-1.1735.661-.2479-.8759-.8429-.8759-.3967 0-1.6528 1.3718-.0991 1.2561-.0991 3.9997 0 1.3718.2148 1.3883.3802.0495 1.3388.0495.0496.1158.0496.2645t-.0496.2479l-1.8511-.0495q-1.3553 0-2.3965.1322-.0827-.0992-.0827-.281l.0165-.1322q.876-.1653 1.124-.5124.1817-.2644.2644-.8429.0826-.595.0826-2.3139 0-1.7188-.0165-1.9006 0-.1818-.0165-.4793t-.0661-.4463q-.0496-.1488-.1488-.3305-.1653-.314-.5784-.314zm10.3298 7.4705-1.4875-.0495q-1.157 0-2.1816.1323-.0992-.1323-.0992-.281l.033-.1323q.7107-.1652.9586-.5123.1819-.2644.281-.628.0992-.3802.0992-2.1486v-1.5867q0-1.0247-.0992-1.4214-.0826-.3967-.2644-.5289-.1818-.1322-.4793-.1652l-.6116-.0495q-.0495-.066-.0495-.2148l.0495-.2148q.8595-.1818 1.3884-.3636.5454-.1983 1.2726-.562.1818 0 .248.1983-.1984 1.1239-.1984 5.355 0 .7602.0496 1.6858.066.909.1652.9255.248.0495.9256.0495.0496.1158.0496.2645 0 .1488-.0496.2479zM51.8813 6.3477q-.595-.4132-.843-1.0908.1984-.2314.529-.4793.347-.2645.595-.3637.628.4628.8098 1.1074-.4628.595-1.0908.8264zM7.9013 25.619l2.066.0494q1.3883 0 2.1155-.1322.0827.0992.0827.281l-.0165.1322q-.7272.1323-.9421 1.438-.1653.7436-.1653 3.6525V36.18q0 2.0164-.347 2.8758-.3306.8595-1.5702 1.818L7.4716 42.13q-.2975-.066-.2975-.3802l.9256-.942q.9586-.9752 1.2065-2.3304.2645-1.3388.2645-3.6692V30.412q0-4.198-.2645-4.2311-.4462-.0495-1.4048-.0495-.0496-.1158-.0496-.2645t.0496-.2479zm11.1396 5.9333-.0496 4.0328q0 1.2065.7768 1.2065l.595-.017q.0661.0825.0661.2645l-.033.1817q-1.2726.2313-1.818.6777-.3637-.0993-.6281-.4463-.248-.3636-.281-.7603-1.3222.81-2.6279 1.2066-.562 0-1.157-.628-.5949-.6447-.5949-1.6033 0-.4792.2149-.8594.2148-.3967.5123-.5454 1.223-.6115 3.6361-1.0743V31.618q0-.909-.2975-1.3553-.281-.4462-.6942-.4462-.3966 0-.8594.1487-.4628.1323-.6611.529-.1818.3966-.1818 1.1238 0 .066-.2314.1488-.2149.066-.562.066-.3305 0-.4627-.1488-.1157-.1653-.1157-.4793 0-.595.8594-1.2891.1984-.1323 1.157-.4463.9751-.314 1.1238-.314 1.19 0 1.752.6941.562.6942.562 1.7024zm-4.2806 4.0328q0 .3967.314.8594.314.4628.7107.4628.4132 0 .942-.281.529-.281.876-.595.0496-.975.0496-2.2477-1.3883.1818-2.446.7933-.4463.2148-.4463 1.0082zm11.1726-5.4045q-.4958-.4298-1.2726-.4298-1.6032 0-1.6032 1.2892 0 .4132.2975.7933.314.3636.7603.5785l1.2891.6115q1.8842.909 1.8842 2.4296 0 1.1239-.8925 1.785-.8925.661-2.1155.661-.6446 0-1.3553-.1322-.6942-.1158-.9917-.248-.0496-.7437-.2975-2.066.1818-.1157.2975-.1157.1323 0 .1818.033.3306.9917.5785 1.2727.1818.1817.6446.3966.4628.2148 1.0908.2148.6446 0 1.1074-.347.4627-.3471.4627-1.0413 0-.4628-.1818-.6942-.1818-.2313-.314-.347-.1157-.1323-.281-.2313-.1487-.0993-.2644-.1488-.0992-.066-.2149-.1158-.0991-.066-.1157-.066l-1.2395-.595q-1.6032-.7603-1.6032-2.1982 0-1.1734.8925-1.7354.8925-.5784 2.0163-.5784.5455 0 1.223.1487.6943.1323 1.0413.281-.1157.3967-.2644 1.8511-.0826.066-.2314.066-.1322 0-.2644-.033-.1323-.8264-.2645-1.2891zm11.4537 3.355q0 3.6692-4.2642 4.3634-1.7519 0-2.9584-1.2396-1.19-1.2561-1.19-3.1237 0-3.7022 4.2807-4.3799 1.7354 0 2.9254 1.2727 1.2065 1.2726 1.2065 3.1072zm-3.9006 3.6527q2.38 0 2.38-3.0411 0-1.7189-.7933-3.008-.7933-1.2892-2.099-1.2892-1.3057 0-1.9007.8429-.5785.8264-.5785 2.38 0 1.537.8099 2.8262.8099 1.2892 2.1816 1.2892zm5.6855-7.0408-.6445.017q-.0662-.0828-.0662-.2148 0-.1323.0331-.2313 1.1239-.1488 1.8346-.4628.2314-.0992.281-.0992.1487 0 .3636.4627.2148.4628.3636 1.0248 1.6693-.9421 3.256-1.4875 1.008 0 1.5535.8098.5454.7933.5454 2.1156l-.033 2.1816q0 2.7601.2479 2.8097.2479.033.9255.033.0661.1158.0661.248 0 .1322-.066.2644l-1.5206-.0495q-1.3718 0-2.1817.1322-.0826-.0992-.0826-.281l.0165-.1322q.4793-.1158.7437-.314.2645-.2148.3306-.3967.0826-.1983.1322-.5785.0496-.3966.0496-1.5205v-1.3718q0-1.157-.2644-1.9503-.1157-.314-.2645-.4627-.3636-.3967-.876-.3967-.5123 0-1.0247.1983-.5123.1983-.7768.3636-.2644.1653-.7437.4958-.0661 1.3057-.0661 3.5039 0 2.1816.2148 2.2147.2314.033.843.033.066.1158.066.248 0 .1322-.066.2644l-1.4049-.0496q-1.256 0-2.1816.1323-.0827-.0992-.0827-.281l.0165-.1322q.4793-.1158.7438-.314.2644-.2148.3305-.3967.0827-.1983.1322-.7107.0662-.5289.0662-2.2478 0-1.7188-.0165-1.9007 0-.1982-.0166-.4958-.0165-.2975-.066-.4462-.0496-.1488-.1488-.314-.1653-.314-.562-.314z"/></g></g></svg>