<svg xmlns="http://www.w3.org/2000/svg" width="210.146" height="167.2314" viewBox="0 0 55.6011 44.2467"><path d="m218.8922 86.4816 17.3517.2892q12.1461 0 16.7732-.723.8676 1.5906.8676 2.4581l-.2892 1.1568q-8.965.8676-14.8935 9.5434-4.7717 7.0853-8.242 15.0381-3.615 8.8204-10.7002 22.7017 17.6408 16.7733 32.5343 19.2314 3.3258.5784 10.2664.5784.2892 2.0244.2892 3.0366 0 .8676-.1446 1.446-9.3988.4337-15.6165 1.5905-6.073 1.3014-7.2298 1.3014-1.1568 0-4.338-1.3014-3.181-1.1568-9.5433-5.0609-6.2177-3.9041-13.1584-9.688-5.4946 7.2299-12.2907 10.9894-6.796 3.7595-17.207 5.0609-15.1827 0-25.5937-8.0975-10.2664-8.242-10.2664-21.545 0-10.8447 5.2055-18.5083 5.35-7.8083 15.1827-15.9057-8.242-13.4475-8.242-23.2801 0-9.8326 7.0852-15.1827 7.2299-5.4947 18.5084-6.796 8.0974 0 14.4597 5.0608 6.3623 4.9163 6.3623 12.1462 0 5.0609-3.9041 8.965-3.0366 3.0365-5.3501 4.6271-2.3136 1.5906-2.4582 1.7352l-2.7473-2.4582q5.0609-5.2055 5.0609-11.4231 0-6.2177-4.0487-10.411-4.0488-4.338-9.5434-4.338-5.3501 0-8.5313 3.615-3.0365 3.615-3.0365 9.9772t3.7595 14.1705q3.9041 7.6636 11.134 16.0503 11.2786 13.0137 25.3045 26.3166l4.0487 3.9041q10.2664-20.2435 13.5921-41.0655-4.338-.8676-10.411-.8676-.5784-1.1568-.5784-2.169 0-1.0121.5784-2.169zm-32.3897 70.8525q12.0015 0 21.8341-13.0137-25.449-23.4247-37.1614-39.3304-5.2055 5.9285-7.2298 10.5556-1.8798 4.627-1.8798 11.134 0 6.5068 1.3014 11.4231 1.3013 4.7717 3.904 9.2542 2.7474 4.4825 7.6637 7.2299 4.9163 2.7473 11.5678 2.7473z" aria-label="&amp;" style="font-size:144.597px;line-height:1.25;font-family:Rosarivo;-inkscape-font-specification:Rosarivo;text-align:center;text-anchor:middle;fill:#cef3fd;stroke-width:3.61491" transform="matrix(.26 0 0 .26 -24.6995 -8.9077)"/><g aria-label="Mhairi Jason" style="font-size:62.4667px;line-height:1.25;font-family:Rosarivo;-inkscape-font-specification:Rosarivo;text-align:center;text-anchor:middle;fill:#2b4157;stroke-width:1.56167"><path d="m17.636 16.9584-1.7188-.0495q-1.785 0-2.8923.1322-.0827-.0992-.0827-.281l.0166-.1322q.9916-.2314 1.256-.4958.2645-.2645.314-1.124.0497-.8594.0497-1.785 0-.942-.0992-2.8592l-.1322-2.7105q-.7603 1.4048-2.38 4.7765-1.6032 3.3716-2.0825 4.8095h-.4628Q6.199 9.9507 5.29 8.3641l-.6941-1.19q-.0662 2.0494-.0662 5.0078 0 2.942.1984 4.2146.3636.0496 1.2891.0496.0496.1322.0496.2975 0 .1487-.0496.2148l-1.8676-.0495q-1.1404 0-1.9172.1322-.0826-.0992-.0826-.281l.0165-.1322q.8099-.1818 1.0743-.5289.281-.347.3636-.909.3967-2.8263.4628-8.9084-.4463-.562-.9752-.7934-.066-.0165-.9255-.1322l-.0496-.2314q0-.1652.0496-.2644l2.6444-.0661q.248 0 .843.876.6115.876 1.2064 1.9502.595 1.0578 1.3718 2.7601.7934 1.7024 1.3223 2.942.5288 1.2395.595 1.3552.2148-.4793 2.0328-4.3137 1.818-3.851 2.3966-5.355 1.6693 0 2.661-.1487.0825.1487.0825.4132-.8263.1818-1.1073.5454-.281.3636-.314.7768-.033.4132-.033 1.5536t.099 3.8675q.1158 2.727.3472 4.3798.314.0496 1.3222.0496.0496.1157.0496.2644 0 .1488-.0496.248zm4.76 0-1.3883-.0495q-1.2892 0-2.3304.1322-.0826-.0992-.0826-.281l.0165-.1322q.6776-.1488.909-.4463.248-.314.3636-1.0082.1322-.7106.1322-5.1896V5.7527q0-1.504-.347-1.8346-.1818-.1818-.4628-.2148l-.595-.0661q-.0496-.0827-.0496-.1984 0-.1322.0496-.2148 1.1735-.2149 1.818-.529.4298-.2148.9752-.5784.1652 0 .2644.1653-.3305 2.066-.3305 7.7515 2.099-1.157 3.355-1.5371 1.0744 0 1.6198.7933.5454.7933.5454 2.132l-.033 2.1156q0 2.8262.2479 2.8758.2479.033.975.033.0662.1158.0662.215 0 .0991-.0661.2974l-1.5206-.0495q-1.3718 0-2.1816.1322-.0992-.1322-.0992-.281l.033-.1322q.6777-.1488.9091-.4463.2314-.2975.2644-.7107.0496-.4131.0496-1.6692t-.0165-1.5536q0-.314-.0496-.7934-.033-.4958-.1487-.7437-.0992-.2645-.2645-.5454-.3305-.5124-1.1735-.5124-.8429 0-1.8676.6776-.1487.0827-.3801.248-.2314.1487-.2645.1652-.0165.8264-.0165 1.752 0 3.8179.1983 3.884.2149.066.876.066.0496.1158.0496.2645 0 .1488-.0496.248zm12.7428-6.0656-.0496 4.0327q0 1.2066.7768 1.2066l.595-.0166q.0661.0827.0661.2645l-.033.1818q-1.2727.2314-1.818.6776-.3637-.0992-.6281-.4462-.248-.3637-.281-.7603-1.3222.8098-2.6279 1.2065-.562 0-1.157-.628-.595-.6446-.595-1.6032 0-.4793.215-.8595.2148-.3966.5123-.5454 1.223-.6115 3.636-1.0743V10.959q0-.909-.2974-1.3553-.281-.4462-.6942-.4462-.3966 0-.8594.1487-.4628.1323-.6611.529-.1818.3966-.1818 1.1238 0 .0661-.2314.1487-.2149.0662-.562.0662-.3305 0-.4627-.1488-.1157-.1653-.1157-.4793 0-.595.8594-1.2891.1983-.1323 1.157-.4463.975-.314 1.1238-.314 1.19 0 1.752.6941.5619.6942.5619 1.7024zm-4.2807 4.0327q0 .3967.314.8595.314.4627.7108.4627.4131 0 .942-.281.529-.2809.876-.595.0496-.975.0496-2.2477-1.3883.1818-2.4461.7933-.4463.215-.4463 1.0082zm10.3463 2.033-1.4875-.0496q-1.157 0-2.1816.1322-.0992-.1322-.0992-.281l.033-.1322q.7108-.1653.9587-.5124.1818-.2644.281-.628.0991-.3802.0991-2.1486v-1.5867q0-1.0247-.0992-1.4214-.0826-.3966-.2644-.5288-.1818-.1323-.4793-.1653l-.6115-.0496q-.0496-.0661-.0496-.2149l.0496-.2148q.8594-.1818 1.3883-.3636.5454-.1984 1.2726-.562.1818 0 .248.1984-.1984 1.1238-.1984 5.355 0 .7602.0496 1.6857.0661.909.1653.9256.2479.0496.9255.0496.0496.1157.0496.2644 0 .1488-.0496.248zM39.6508 6.3476q-.595-.4132-.8429-1.0908.1983-.2314.5289-.4793.347-.2645.595-.3636.628.4627.8098 1.1073-.4627.595-1.0908.8264zm3.4543 3.1402-.6446.0166q-.0826-.0827-.0826-.248l.033-.1983q1.124-.1487 1.8346-.4628.2314-.0991.281-.0991.1818 0 .4132.661.2313.6447.281 1.2892 1.2395-1.2891 2.2477-1.9502.661 0 1.0908.3966.4297.3802.4297.9586 0 .6612-1.1734.6612-.248-.876-.843-.876-.3966 0-1.6527 1.3718-.0992 1.256-.0992 3.9997 0 1.3718.2149 1.3883.3801.0496 1.3387.0496.0496.1157.0496.2644 0 .1488-.0496.248l-1.851-.0496q-1.3553 0-2.3966.1322-.0826-.0992-.0826-.281l.0165-.1322q.876-.1653 1.1239-.5124.1818-.2644.2644-.8429.0827-.595.0827-2.3139 0-1.7188-.0166-1.9006 0-.1818-.0165-.4793t-.0661-.4463q-.0496-.1487-.1488-.3305-.1652-.314-.5784-.314zm10.3297 7.4705-1.4874-.0495q-1.157 0-2.1817.1322-.0992-.1322-.0992-.281l.0331-.1322q.7107-.1653.9586-.5124.1818-.2644.281-.628.0991-.3802.0991-2.1486v-1.5867q0-1.0247-.0991-1.4214-.0827-.3966-.2645-.5288-.1818-.1323-.4793-.1653l-.6115-.0496q-.0496-.0661-.0496-.2149l.0496-.2148q.8594-.1818 1.3883-.3636.5454-.1984 1.2727-.562.1818 0 .2479.1984-.1984 1.1238-.1984 5.355 0 .7602.0496 1.6857.0661.909.1653.9256.248.0496.9255.0496.0496.1157.0496.2644 0 .1488-.0496.248zM51.8812 6.3477q-.595-.4132-.8429-1.0908.1984-.2314.529-.4793.347-.2645.595-.3636.628.4627.8098 1.1073-.4628.595-1.0909.8264zM7.9013 25.619l2.066.0495q1.3883 0 2.1155-.1322.0826.0991.0826.281l-.0165.1322q-.7272.1322-.942 1.4379-.1654.7437-.1654 3.6526v5.14q0 2.0165-.347 2.8759-.3306.8594-1.5702 1.818L7.4716 42.13q-.2975-.066-.2975-.38l.9255-.9422q.9586-.9751 1.2065-2.3304.2645-1.3387.2645-3.6691v-4.3964q0-4.198-.2645-4.231-.4462-.0496-1.4048-.0496-.0496-.1157-.0496-.2645 0-.1487.0496-.2479zm11.1396 5.9333-.0496 4.0328q0 1.2065.7768 1.2065l.595-.0165q.0661.0826.0661.2644l-.033.1818q-1.2727.2314-1.8181.6777-.3636-.0992-.628-.4463-.248-.3636-.281-.7603-1.3222.8099-2.628 1.2066-.5619 0-1.1569-.628-.595-.6447-.595-1.6033 0-.4793.215-.8594.2148-.3967.5123-.5454 1.223-.6115 3.636-1.0743v-1.5701q0-.909-.2974-1.3553-.281-.4463-.6942-.4463-.3967 0-.8594.1488-.4628.1322-.6612.5289-.1818.3966-.1818 1.1239 0 .066-.2313.1487-.2149.0661-.562.0661-.3305 0-.4628-.1487-.1157-.1653-.1157-.4793 0-.595.8595-1.2892.1983-.1322 1.157-.4462.975-.314 1.1238-.314 1.19 0 1.752.694.5619.6943.5619 1.7024zm-4.2807 4.0328q0 .3967.314.8594.314.4628.7107.4628.4132 0 .9421-.281t.876-.595q.0496-.975.0496-2.2477-1.3884.1818-2.4461.7933-.4463.2149-.4463 1.0082zm11.1727-5.4045q-.4959-.4298-1.2727-.4298-1.6031 0-1.6031 1.2892 0 .4132.2975.7933.314.3636.7602.5785l1.2892.6115q1.8841.909 1.8841 2.4296 0 1.1239-.8925 1.785-.8924.661-2.1155.661-.6446 0-1.3553-.1322-.6941-.1156-.9916-.2479-.0496-.7437-.2975-2.066.1818-.1156.2975-.1156.1322 0 .1818.033.3305.9917.5785 1.2727.1818.1818.6445.3966.4628.2149 1.0909.2149.6445 0 1.1073-.3471.4628-.347.4628-1.0412 0-.4628-.1818-.6942-.1818-.2314-.314-.347-.1157-.1323-.281-.2315-.1488-.0991-.2645-.1487-.0991-.0661-.2148-.1157-.0992-.0661-.1157-.0661l-1.2396-.595q-1.6032-.7603-1.6032-2.1982 0-1.1735.8925-1.7354.8925-.5785 2.0164-.5785.5454 0 1.223.1488.6942.1322 1.0413.281-.1157.3966-.2645 1.851-.0826.0662-.2313.0662-.1323 0-.2645-.033-.1322-.8265-.2644-1.2892zm11.4536 3.355q0 3.6692-4.2641 4.3634-1.752 0-2.9585-1.2396-1.19-1.2561-1.19-3.1237 0-3.7022 4.2807-4.3799 1.7354 0 2.9254 1.2727 1.2065 1.2726 1.2065 3.1072zm-3.9005 3.6527q2.38 0 2.38-3.0411 0-1.7189-.7933-3.008-.7934-1.2892-2.099-1.2892-1.3057 0-1.9007.843-.5785.8263-.5785 2.3799 0 1.537.8098 2.8262.8099 1.2892 2.1817 1.2892zm5.6855-7.0408-.6446.0165q-.0661-.0826-.0661-.2148 0-.1322.033-.2314 1.124-.1488 1.8346-.4628.2314-.0992.281-.0992.1487 0 .3636.4628.2149.4628.3636 1.0247 1.6693-.942 3.256-1.4875 1.0081 0 1.5536.8099.5454.7933.5454 2.1155l-.033 2.1817q0 2.7601.2478 2.8097.248.033.9256.033.066.1157.066.248 0 .1322-.066.2644l-1.5206-.0496q-1.3718 0-2.1816.1322-.0827-.0991-.0827-.281l.0166-.1321q.4793-.1157.7437-.314.2645-.215.3306-.3967.0826-.1984.1322-.5785.0496-.3967.0496-1.5206V33.106q0-1.157-.2645-1.9503-.1157-.314-.2644-.4628-.3636-.3966-.876-.3966-.5123 0-1.0247.1983-.5123.1983-.7768.3636-.2644.1653-.7437.4958-.0661 1.3057-.0661 3.5039 0 2.1816.2148 2.2147.2314.033.843.033.066.1157.066.248 0 .1322-.066.2644l-1.405-.0496q-1.256 0-2.1816.1322-.0826-.0991-.0826-.281l.0165-.1321q.4793-.1157.7438-.314.2644-.215.3305-.3967.0827-.1984.1322-.7107.0662-.529.0662-2.2478 0-1.7189-.0166-1.9007 0-.1983-.0165-.4958t-.0661-.4462q-.0496-.1488-.1488-.314-.1652-.3141-.562-.3141z"/></g></svg>