<?xml version="1.0" encoding="UTF-8" standalone="no"?>
<svg
   width="210.146"
   height="167.2314"
   viewBox="0 0 55.6011 44.2467"
   version="1.1"
   id="svg2"
   sodipodi:docname="logo-web.svg"
   inkscape:version="1.3.2 (091e20e, 2023-11-25)"
   xmlns:inkscape="http://www.inkscape.org/namespaces/inkscape"
   xmlns:sodipodi="http://sodipodi.sourceforge.net/DTD/sodipodi-0.dtd"
   xmlns="http://www.w3.org/2000/svg"
   xmlns:svg="http://www.w3.org/2000/svg">
  <defs
     id="defs2" />
  <sodipodi:namedview
     id="namedview2"
     pagecolor="#ffffff"
     bordercolor="#000000"
     borderopacity="0.25"
     inkscape:showpageshadow="2"
     inkscape:pageopacity="0.0"
     inkscape:pagecheckerboard="0"
     inkscape:deskcolor="#d1d1d1"
     inkscape:zoom="1.4112182"
     inkscape:cx="104.87393"
     inkscape:cy="83.6157"
     inkscape:window-width="1312"
     inkscape:window-height="449"
     inkscape:window-x="0"
     inkscape:window-y="38"
     inkscape:window-maximized="0"
     inkscape:current-layer="svg2" />
  <path
     d="m85.0741 63.1864 4.591.0766q3.2137 0 4.438-.1913.2295.4208.2295.6504l-.0765.306q-2.372.2296-3.9406 2.525-1.2625 1.8747-2.1807 3.9789-.9565 2.3337-2.8311 6.0065 4.6675 4.438 8.608 5.0883.88.153 2.7164.153.0765.5356.0765.8034 0 .2296-.0383.3826-2.4868.1148-4.1318.4209-1.6069.3443-1.913.3443-.306 0-1.1477-.3443-.8417-.3061-2.525-1.339-1.6451-1.033-3.4815-2.5634-1.4538 1.913-3.252 2.9077-1.798.9947-4.5526 1.339-4.0171 0-6.7717-2.1425-2.7163-2.1807-2.7163-5.7004 0-2.8694 1.3773-4.897 1.4155-2.066 4.017-4.2084-2.1806-3.558-2.1806-6.1595 0-2.6016 1.8746-4.0171 1.9129-1.4538 4.897-1.7982 2.1425 0 3.8258 1.339 1.6834 1.3008 1.6834 3.2137 0 1.339-1.033 2.372-.8034.8035-1.4155 1.2243-.6122.4208-.6504.459l-.727-.6503q1.3391-1.3773 1.3391-3.0224 0-1.645-1.0712-2.7546-1.0712-1.1477-2.525-1.1477-1.4156 0-2.2573.9565-.8034.9564-.8034 2.6398 0 1.6833.9947 3.7492 1.033 2.0277 2.9459 4.2467 2.9841 3.4432 6.6951 6.963l1.0713 1.0329q2.7163-5.3561 3.5962-10.8653-1.1477-.2295-2.7546-.2295-.153-.306-.153-.5739 0-.2678.153-.5739zM76.5044 81.933q3.1754 0 5.777-3.4433-6.7335-6.1978-9.8324-10.4061-1.3773 1.5685-1.9129 2.7928-.4973 1.2242-.4973 2.9459 0 1.7216.3443 3.0223.3443 1.2626 1.033 2.4486.7268 1.186 2.0276 1.9129 1.3008.7269 3.0607.7269z"
     aria-label="&amp;"
     style="font-size:38.258px;line-height:1.25;font-family:Rosarivo;-inkscape-font-specification:Rosarivo;text-align:center;text-anchor:middle;fill:#9e9e9e;stroke-width:.956445"
     transform="translate(-51.8584 -49.2125)"
     id="path1" />
  <g
     aria-label="Mhairi Jason"
     style="font-size:16.5276px;line-height:1.25;font-family:Rosarivo;-inkscape-font-specification:Rosarivo;text-align:center;text-anchor:middle;fill:#222;stroke-width:.413192"
     id="g2">
    <path
       d="m17.636 16.9585-1.7188-.0496q-1.785 0-2.8923.1322-.0827-.0992-.0827-.281l.0166-.1322q.9916-.2314 1.256-.4958.2645-.2645.314-1.1239.0497-.8594.0497-1.785 0-.942-.0992-2.8593l-.1322-2.7105q-.7603 1.4049-2.38 4.7765-1.6032 3.3716-2.0825 4.8095H9.422q-3.223-7.2886-4.132-8.8753l-.694-1.19q-.0662 2.0494-.0662 5.0079 0 2.9419.1983 4.2145.3636.0496 1.2892.0496.0496.1322.0496.2975 0 .1487-.0496.2148l-1.8676-.0495q-1.1404 0-1.9172.1322-.0827-.0992-.0827-.281l.0165-.1322q.8099-.1818 1.0743-.5289.281-.347.3636-.909.3967-2.8262.4628-8.9084-.4462-.562-.9751-.7933-.0661-.0165-.9256-.1322l-.0495-.2314q0-.1653.0495-.2645l2.6445-.066q.2479 0 .8429.8759.6115.876 1.2065 1.9503.595 1.0577 1.3718 2.76.7933 1.7024 1.3222 2.942.5289 1.2395.595 1.3552.2148-.4793 2.0329-4.3137Q14 6.513 14.5785 5.009q1.6693 0 2.661-.1488.0826.1488.0826.4132-.8264.1818-1.1074.5454-.281.3637-.314.7768-.033.4132-.033 1.5536t.0991 3.8675q.1157 2.727.347 4.3798.3141.0496 1.3223.0496.0496.1157.0496.2644 0 .1488-.0496.248zm4.76 0-1.3883-.0496q-1.2892 0-2.3304.1322-.0826-.0992-.0826-.281l.0165-.1322q.6776-.1487.909-.4462.248-.314.3636-1.0082.1322-.7107.1322-5.1897v-4.231q0-1.504-.347-1.8346-.1818-.1818-.4628-.2149l-.595-.066q-.0496-.0827-.0496-.1984 0-.1322.0496-.2149 1.1735-.2148 1.818-.5289.4298-.2148.9752-.5784.1652 0 .2644.1652-.3305 2.066-.3305 7.7515 2.099-1.157 3.355-1.537 1.0744 0 1.6198.7932.5454.7934.5454 2.1321l-.033 2.1155q0 2.8263.2478 2.8758.248.0331.9752.0331.066.1157.066.2149 0 .0991-.066.2975l-1.5206-.0496q-1.3718 0-2.1816.1322-.0992-.1322-.0992-.281l.033-.1322q.6777-.1487.909-.4462.2315-.2975.2645-.7107.0496-.4132.0496-1.6693t-.0165-1.5536q0-.314-.0496-.7933-.033-.4959-.1487-.7438-.0992-.2644-.2645-.5454-.3305-.5123-1.1734-.5123-.843 0-1.8677.6776-.1487.0826-.3801.248-.2314.1487-.2644.1652-.0166.8264-.0166 1.752 0 3.8178.1984 3.8839.2148.0661.876.0661.0495.1157.0495.2644 0 .1488-.0496.248zm12.7428-6.0657-.0496 4.0328q0 1.2065.7768 1.2065l.595-.0166q.066.0827.066.2645l-.033.1818q-1.2726.2314-1.818.6776-.3636-.0992-.628-.4462-.248-.3636-.281-.7603-1.3222.8099-2.6279 1.2065-.562 0-1.157-.628-.595-.6446-.595-1.6032 0-.4793.215-.8594.2148-.3967.5123-.5455 1.223-.6115 3.636-1.0742v-1.5702q0-.909-.2974-1.3552-.281-.4463-.6942-.4463-.3967 0-.8594.1488-.4628.1322-.6611.5289-.1818.3966-.1818 1.1238 0 .0661-.2314.1488-.2149.066-.562.066-.3305 0-.4627-.1487-.1157-.1652-.1157-.4793 0-.595.8594-1.2891.1983-.1322 1.157-.4463.975-.314 1.1238-.314 1.19 0 1.752.6942.5619.6941.5619 1.7023zm-4.2807 4.0328q0 .3966.314.8594.314.4628.7107.4628.4132 0 .9421-.281t.876-.595q.0495-.9751.0495-2.2478-1.3883.1819-2.446.7934-.4463.2148-.4463 1.0082zm10.3463 2.0329-1.4875-.0496q-1.157 0-2.1817.1322-.0991-.1322-.0991-.281l.033-.1322q.7107-.1653.9586-.5124.1818-.2644.281-.628.0992-.3801.0992-2.1486v-1.5866q0-1.0248-.0992-1.4214-.0826-.3967-.2644-.5289-.1818-.1322-.4793-.1653l-.6116-.0496q-.0495-.066-.0495-.2148l.0495-.2149q.8595-.1818 1.3884-.3636.5454-.1983 1.2726-.562.1818 0 .2479.1984-.1983 1.1239-.1983 5.355 0 .7602.0495 1.6858.0662.909.1653.9255.248.0496.9256.0496.0495.1157.0495.2644 0 .1488-.0495.248zM39.6508 6.3477q-.595-.4132-.843-1.0908.1984-.2314.529-.4793.347-.2644.595-.3636.628.4628.8098 1.1074-.4628.595-1.0908.8263zM43.105 9.488l-.6445.0165q-.0827-.0826-.0827-.248l.033-.1982q1.124-.1488 1.8346-.4628.2314-.0992.281-.0992.1818 0 .4132.6611.2314.6446.281 1.2892 1.2395-1.2892 2.2477-1.9503.6611 0 1.0908.3967.4298.3801.4298.9586 0 .661-1.1735.661-.248-.8759-.843-.8759-.3966 0-1.6527 1.3718-.0991 1.2561-.0991 3.9997 0 1.3718.2148 1.3883.3802.0496 1.3388.0496.0495.1157.0495.2644 0 .1488-.0495.248l-1.8511-.0496q-1.3553 0-2.3965.1322-.0827-.0992-.0827-.281l.0166-.1322q.876-.1653 1.1238-.5124.1818-.2644.2645-.8429.0826-.595.0826-2.3138 0-1.7189-.0165-1.9007 0-.1818-.0165-.4793-.0166-.2975-.0662-.4462-.0495-.1488-.1487-.3306-.1653-.314-.5785-.314zm10.3298 7.4705-1.4875-.0496q-1.157 0-2.1817.1322-.0992-.1322-.0992-.281l.0331-.1322q.7107-.1653.9586-.5124.1818-.2644.281-.628.0992-.3801.0992-2.1486v-1.5866q0-1.0248-.0992-1.4214-.0826-.3967-.2644-.5289-.1818-.1322-.4793-.1653l-.6116-.0496q-.0496-.066-.0496-.2148l.0496-.2149q.8595-.1818 1.3884-.3636.5454-.1983 1.2726-.562.1818 0 .2479.1984-.1983 1.1239-.1983 5.355 0 .7602.0496 1.6858.066.909.1652.9255.248.0496.9256.0496.0496.1157.0496.2644 0 .1488-.0496.248zM51.8812 6.3477q-.595-.4132-.843-1.0908.1984-.2314.529-.4793.347-.2644.595-.3636.628.4628.8098 1.1074-.4628.595-1.0908.8263zM7.9013 25.619l2.066.0495q1.3883 0 2.1155-.1322.0827.0991.0827.281l-.0166.1322q-.7272.1322-.942 1.4379-.1653.7437-.1653 3.6526v5.14q0 2.0164-.3471 2.8758-.3306.8595-1.5701 1.818L7.4716 42.13q-.2975-.0661-.2975-.3802l.9256-.942q.9586-.9752 1.2065-2.3304.2644-1.3388.2644-3.6691v-4.3964q0-4.198-.2644-4.231-.4463-.0496-1.4049-.0496-.0495-.1157-.0495-.2645 0-.1487.0495-.2479zm11.1396 5.9333-.0496 4.0328q0 1.2065.7768 1.2065l.595-.0166q.0661.0827.0661.2645l-.033.1818q-1.2727.2314-1.818.6776-.3637-.0992-.6281-.4462-.248-.3636-.281-.7603-1.3222.8099-2.6279 1.2065-.562 0-1.157-.628-.595-.6446-.595-1.6032 0-.4793.215-.8594.2148-.3967.5123-.5455 1.223-.6115 3.636-1.0742v-1.5702q0-.909-.2974-1.3552-.281-.4463-.6942-.4463-.3967 0-.8594.1488-.4628.1322-.6611.5289-.1818.3966-.1818 1.1238 0 .0661-.2314.1488-.2149.066-.562.066-.3305 0-.4627-.1487-.1157-.1652-.1157-.4793 0-.595.8594-1.2891.1983-.1322 1.157-.4463.975-.314 1.1238-.314 1.19 0 1.752.6942.5619.6941.5619 1.7023zm-4.2807 4.0328q0 .3966.314.8594.314.4628.7107.4628.4132 0 .9421-.281.529-.281.876-.595.0496-.9751.0496-2.2478-1.3884.1819-2.4461.7934-.4463.2148-.4463 1.0082zm11.1727-5.4046q-.4959-.4297-1.2727-.4297-1.6031 0-1.6031 1.2892 0 .4132.2975.7933.314.3636.7602.5785l1.2892.6115q1.8841.909 1.8841 2.4295 0 1.124-.8925 1.785-.8925.6611-2.1155.6611-.6446 0-1.3553-.1322-.6941-.1157-.9916-.248-.0496-.7437-.2975-2.0659.1818-.1157.2975-.1157.1322 0 .1818.0331.3305.9917.5785 1.2726.1818.1818.6445.3967.4628.2148 1.0909.2148.6445 0 1.1073-.347.4628-.3471.4628-1.0413 0-.4627-.1818-.6941-.1818-.2314-.314-.3471-.1157-.1322-.281-.2314-.1488-.0992-.2645-.1487-.0991-.0662-.2148-.1157-.0992-.0661-.1157-.0661l-1.2396-.595q-1.6032-.7603-1.6032-2.1982 0-1.1735.8925-1.7354.8925-.5785 2.0164-.5785.5454 0 1.223.1488.6942.1322 1.0413.281-.1157.3966-.2645 1.851-.0826.0661-.2314.0661-.1322 0-.2644-.033-.1322-.8264-.2644-1.2892zm11.4536 3.3551q0 3.6692-4.2641 4.3633-1.752 0-2.9585-1.2395-1.19-1.2561-1.19-3.1238 0-3.7021 4.2807-4.3798 1.7354 0 2.9254 1.2726 1.2065 1.2727 1.2065 3.1072zm-3.9005 3.6526q2.38 0 2.38-3.041 0-1.719-.7934-3.008-.7933-1.2892-2.099-1.2892-1.3057 0-1.9007.8429-.5784.8264-.5784 2.38 0 1.537.8098 2.8262.8099 1.2891 2.1817 1.2891zm5.6854-7.0407-.6445.0165q-.0661-.0826-.0661-.2149 0-.1322.033-.2313 1.1239-.1488 1.8346-.4628.2314-.0992.281-.0992.1487 0 .3635.4628.2149.4628.3637 1.0247 1.6692-.942 3.2559-1.4875 1.0082 0 1.5536.8099.5454.7933.5454 2.1155l-.033 2.1817q0 2.76.2478 2.8096.248.0331.9256.0331.0661.1157.0661.248 0 .1321-.0661.2644l-1.5205-.0496q-1.3718 0-2.1817.1322-.0826-.0992-.0826-.281l.0165-.1322q.4793-.1157.7437-.314.2645-.2149.3306-.3967.0826-.1983.1322-.5784.0496-.3967.0496-1.5206V33.106q0-1.1569-.2644-1.9502-.1157-.314-.2645-.4628-.3636-.3967-.876-.3967-.5123 0-1.0247.1984-.5123.1983-.7768.3636-.2644.1653-.7437.4958-.0661 1.3057-.0661 3.5039 0 2.1816.2149 2.2147.2313.033.8429.033.066.1157.066.248 0 .1322-.066.2644l-1.4049-.0496q-1.256 0-2.1816.1322-.0827-.0992-.0827-.281l.0166-.1322q.4793-.1157.7437-.314.2644-.2149.3306-.3967.0826-.1983.1322-.7107.066-.5288.066-2.2477t-.0164-1.9007q0-.1983-.0166-.4958-.0165-.2975-.066-.4463-.0497-.1487-.1488-.314-.1653-.314-.562-.314z"
       id="path2" />
  </g>
</svg>
